<?xml version="1.0" encoding="UTF-8"?>
<svg version="1.1" xmlns="http://www.w3.org/2000/svg" width="32" height="32">
<path d="M0 0 C10.56 0 21.12 0 32 0 C32 10.56 32 21.12 32 32 C21.44 32 10.88 32 0 32 C0 21.44 0 10.88 0 0 Z " fill="#0D253B" transform="translate(0,0)"/>
<path d="M0 0 C3.875 1.75 3.875 1.75 5 4 C4.34 4 3.68 4 3 4 C3 6.97 3 9.94 3 13 C1.68 13 0.36 13 -1 13 C-1 10.03 -1 7.06 -1 4 C-1.66 3.67 -2.32 3.34 -3 3 C-2.01 2.01 -1.02 1.02 0 0 Z " fill="#258CDE" transform="translate(15,13)"/>
<path d="M0 0 C1.32 0.66 2.64 1.32 4 2 C4 2.66 4 3.32 4 4 C3.34 4 2.68 4 2 4 C2 9.28 2 14.56 2 20 C1.34 20 0.68 20 0 20 C0 14.72 0 9.44 0 4 C-0.66 4 -1.32 4 -2 4 C-1.34 2.68 -0.68 1.36 0 0 Z " fill="#51DE26" transform="translate(21,6)"/>
<path d="M0 0 C3.875 1.75 3.875 1.75 5 4 C4.01 4 3.02 4 2 4 C2 9.28 2 14.56 2 20 C1.34 20 0.68 20 0 20 C0 14.72 0 9.44 0 4 C-0.66 3.67 -1.32 3.34 -2 3 C-1.34 2.01 -0.68 1.02 0 0 Z " fill="#F7D501" transform="translate(9,6)"/>
<path d="M0 0 C0.66 0.33 1.32 0.66 2 1 C1.67 1.66 1.34 2.32 1 3 C1.66 3 2.32 3 3 3 C3 4.65 3 6.3 3 8 C2.236875 7.62875 1.47375 7.2575 0.6875 6.875 C-0.6428125 6.441875 -0.6428125 6.441875 -2 6 C-2.99 6.66 -3.98 7.32 -5 8 C-5 6.35 -5 4.7 -5 3 C-4.360625 2.690625 -3.72125 2.38125 -3.0625 2.0625 C-1.06389179 1.1654837 -1.06389179 1.1654837 0 0 Z " fill="#041640" transform="translate(17,8)"/>
</svg>
